<svg width="45" height="45" viewBox="0 0 45 45" fill="none" xmlns="http://www.w3.org/2000/svg">
<g id="Layer_1">
<g id="Group">
<path id="Vector" d="M28.3491 27C27.3564 27 26.5491 26.1927 26.5491 25.2C26.5491 24.2073 27.3564 23.4 28.3491 23.4C28.8459 23.4 29.2491 22.9973 29.2491 22.5005L29.25 15.3C29.25 15.2928 29.2482 15.2865 29.2478 15.2793C29.2406 13.1081 28.0922 11.3765 26.1 10.2857V4.95001H26.0991C26.0991 2.25001 23.5841 0.453613 20.2491 0.453613C16.9142 0.453613 14.3991 2.25001 14.3991 4.95001H14.4V10.2848C12.4002 11.3792 11.2491 13.1184 11.2491 15.3H11.25L11.2491 22.4996C11.2491 22.7381 11.3436 22.9676 11.5124 23.1363C11.6811 23.3051 11.9102 23.4 12.1491 23.4C13.1418 23.4 13.9491 24.2073 13.9491 25.2C13.9491 26.1927 13.1418 27 12.1491 27C11.9102 27 11.6811 27.095 11.5124 27.2637C11.3436 27.4325 11.2487 27.662 11.2491 27.9005L11.25 40.5C11.25 41.9891 12.461 43.2 13.9491 43.2H26.5491C28.0386 43.2 29.25 41.9891 29.25 40.5L29.2491 27.8996C29.2491 27.4028 28.8459 27 28.3491 27ZM15.2991 4.95001C15.2991 2.70001 17.4272 1.35361 20.2491 1.35361C23.0711 1.35361 25.1991 2.70001 25.1991 4.95001H25.2V9.86536C24.777 9.69346 24.3288 9.54271 23.85 9.42121V6.30001H21.6V4.50001H21.5991C21.5991 3.75436 20.9948 3.15001 20.2491 3.15001C19.5035 3.15001 18.8991 3.75436 18.8991 4.50001C18.8991 4.50316 18.9 4.50586 18.9 4.50901V6.30001H16.65V9.42076C16.1712 9.54271 15.723 9.69301 15.3 9.86491V4.95001H15.2991ZM20.2491 10.8C23.5661 10.8 27.0918 11.8782 27.4172 14.85H13.0811C13.4064 11.8782 16.9322 10.8 20.2491 10.8ZM26.5491 41.4H13.9491C13.4532 41.4 13.05 40.9964 13.05 40.5V28.6862C14.4 28.2852 15.7496 26.8745 15.7496 25.2C15.7496 23.5256 14.4 22.1148 13.05 21.7139V15.75H27.45V21.7139C26.1 22.1144 24.7496 23.5256 24.7496 25.2C24.7496 26.8745 26.1 28.2857 27.45 28.6862V40.5C27.45 40.9964 27.0459 41.4 26.5491 41.4Z" fill="#231F20"/>
<path id="Vector_2" d="M23.4001 23.4H17.1001V24.3H23.4001V23.4Z" fill="#231F20"/>
<path id="Vector_3" d="M23.4001 26.1H17.1001V27H23.4001V26.1Z" fill="#231F20"/>
</g>
</g>
</svg>
