<svg width="45" height="46" viewBox="0 0 45 46" fill="none" xmlns="http://www.w3.org/2000/svg">
<g id="Layer_1" clip-path="url(#clip0_303_105)">
<g id="Group">
<path id="Vector" d="M35.55 15.8V14.45H34.4241C34.4241 11.8724 32.4 9.7511 29.7 9.52295V9.5C28.8 9.5 28.4621 8.9069 28.4612 8.1221L28.1794 2.7185C28.1029 1.49495 27.0999 0.5 25.8741 0.5H17.7741C16.5483 0.5 15.4894 1.49495 15.4134 2.7185L14.9621 8.1995C14.9621 8.94065 14.4 9.5 13.5 9.5V9.52295C10.8 9.7511 9 11.8724 9 14.45V31.55C9 34.1276 10.8 36.2489 13.5 36.477V36.5C14.4 36.5 14.962 37.0931 14.9629 37.8779L15.3563 43.2815C15.4337 44.5046 16.5483 45.5 17.7741 45.5H25.8741C27.0999 45.5 28.1588 44.505 28.2348 43.2815L28.4621 37.8005C28.4621 37.0593 28.8 36.5 29.7 36.5V36.477C32.4 36.2489 34.2 34.1276 34.2 31.55V31.1H34.4916C34.7391 31.1 34.65 30.9807 34.65 30.7337V24.4337C34.65 24.1862 34.7391 23.9 34.4916 23.9H34.2V20.75H35.55V19.4H34.65V18.5H35.55V18.05H34.65V17.15H35.55V16.7H34.65V15.8H35.55ZM16.3116 2.7743C16.3584 2.02955 17.028 1.4 17.7741 1.4H25.8741C26.6207 1.4 27.2907 2.02955 27.3375 2.77475L27.3645 3.2H16.2855L16.3116 2.7743ZM16.2292 4.1H27.4203L27.5612 6.35H16.0898L16.2292 4.1ZM15.9732 8.2274L16.034 7.25H27.6179L27.6741 8.15C27.6741 8.663 27.8433 9.1256 28.1219 9.5H15.5479C15.8139 9.1427 15.9736 8.7053 15.9732 8.2274ZM27.3366 43.2257C27.2903 43.9704 26.6202 44.6 25.8741 44.6H17.7741C17.0276 44.6 16.3575 43.9704 16.3107 43.2253L16.2842 42.8H27.3631L27.3366 43.2257ZM27.419 41.9H16.2279L16.0871 39.65H27.5589L27.419 41.9ZM27.675 37.7726L27.6143 38.75H16.0304L15.9741 37.85C15.9741 37.337 15.8049 36.8744 15.5263 36.5H28.1003C27.8343 36.8573 27.6746 37.2947 27.675 37.7726ZM33.3 31.55C33.3 33.7869 31.487 35.6 29.25 35.6H13.95C11.7131 35.6 9.9 33.7869 9.9 31.55V14.45C9.9 12.213 11.7131 10.4 13.95 10.4H29.25C31.487 10.4 33.3 12.213 33.3 14.45V31.55Z" fill="#231F20"/>
<path id="Vector_2" d="M15.8909 25.1078C16.2941 25.1078 16.5956 24.9912 16.7954 24.7586C16.9956 24.5259 17.0955 24.2514 17.0955 23.9346C17.0955 23.6664 17.0064 23.4108 16.8273 23.1687C16.6491 22.9257 16.3233 22.8047 15.8526 22.8047C15.5232 22.8047 15.2343 22.8987 14.9868 23.0859C14.738 23.2736 14.6138 23.5566 14.6138 23.9346C14.6138 24.2658 14.7267 24.5439 14.9522 24.7703C15.1781 24.9948 15.4913 25.1078 15.8909 25.1078Z" fill="#231F20"/>
<path id="Vector_3" d="M20.5938 25.1001C20.9912 25.1001 21.3084 24.9489 21.5438 24.6465C21.78 24.3446 21.8979 23.7816 21.8979 22.9577C21.8979 22.3628 21.8129 21.8736 21.6419 21.4902C21.4713 21.1059 21.141 20.9138 20.6492 20.9138C20.1974 20.9138 19.8666 21.096 19.6574 21.461C19.4481 21.825 19.3442 22.3619 19.3442 23.0711C19.3442 23.6052 19.4108 24.0341 19.544 24.3581C19.7492 24.8526 20.0988 25.1001 20.5938 25.1001Z" fill="#231F20"/>
<path id="Vector_4" d="M31.95 14.45C31.95 12.9591 30.7408 11.75 29.25 11.75H13.95C12.4591 11.75 11.25 12.9591 11.25 14.45V31.55C11.25 33.0408 12.4591 34.25 13.95 34.25H29.25C30.7408 34.25 31.95 33.0408 31.95 31.55V14.45ZM28.35 20.3H29.25V22.1H28.35V20.3ZM26.55 20.3H27.45V22.1H26.55V20.3ZM24.75 20.3H25.65V22.1H24.75V20.3ZM20.6037 20.3225C21.393 20.3225 21.9632 20.6015 22.3155 21.1595C22.5877 21.5906 22.7241 22.1819 22.7241 22.933C22.7241 23.6444 22.6008 24.233 22.3542 24.6988C21.996 25.3657 21.4119 25.7 20.5992 25.7C19.8675 25.7 19.3217 25.4268 18.9648 24.8814C18.6665 24.4251 18.518 23.8136 18.518 23.0459C18.518 22.4515 18.607 21.9403 18.7857 21.5141C19.1209 20.7194 19.7271 20.3225 20.6037 20.3225ZM15.0777 13.1C15.818 13.1 16.4165 13.7237 16.4241 14.4964C16.4322 13.7237 17.0307 13.1 17.7705 13.1C18.5148 13.1 19.1241 13.739 19.1241 14.5171C19.1241 14.9202 18.9738 15.2951 18.7209 15.5584L16.4241 17.96L14.8797 16.344L14.9643 16.4327L14.1278 15.5584C13.8749 15.2947 13.7246 14.9202 13.7246 14.5171C13.7241 13.739 14.3334 13.1 15.0777 13.1ZM14.0009 21.6014C14.355 20.7338 15.0048 20.3 15.9467 20.3C16.628 20.3 17.1023 20.43 17.3709 20.7338C17.6382 21.0371 17.7727 21.2 17.7727 21.65H17.0145C16.9691 21.65 16.8966 21.3021 16.7976 21.1851C16.6135 20.966 16.3341 20.867 15.9592 20.867C15.5304 20.867 15.1902 21.042 14.9373 21.3822C14.6844 21.7224 14.5444 22.2121 14.5156 22.8457C14.6916 22.6238 14.9126 22.4595 15.1799 22.3497C15.4242 22.2516 15.6969 22.2039 15.997 22.2039C16.5078 22.2039 16.9538 22.3439 17.334 22.6247C17.7143 22.9046 17.9046 23.3226 17.9046 23.8788C17.9046 24.354 17.7246 24.7752 17.3646 25.142C17.0037 25.5087 16.4902 25.6924 15.8233 25.6924C15.2523 25.6924 14.76 25.5065 14.3455 25.1352C13.9311 24.7631 13.7241 24.1376 13.7241 23.2579C13.7241 22.6072 13.8168 22.055 14.0009 21.6014ZM17.3241 32.45C17.0757 32.45 16.8741 32.2484 16.8741 32C16.8741 31.7516 17.0757 31.55 17.3241 31.55C17.5725 31.55 17.7741 31.7516 17.7741 32C17.7741 32.2484 17.5725 32.45 17.3241 32.45ZM19.1241 32.45C18.8757 32.45 18.6741 32.2484 18.6741 32C18.6741 31.7516 18.8757 31.55 19.1241 31.55C19.3725 31.55 19.5741 31.7516 19.5741 32C19.5741 32.2484 19.3725 32.45 19.1241 32.45ZM20.9241 32.45C20.6757 32.45 20.4741 32.2484 20.4741 32C20.4741 31.7516 20.6757 31.55 20.9241 31.55C21.1725 31.55 21.3741 31.7516 21.3741 32C21.3741 32.2484 21.1725 32.45 20.9241 32.45ZM22.7241 32.45C22.4757 32.45 22.2741 32.2484 22.2741 32C22.2741 31.7516 22.4757 31.55 22.7241 31.55C22.9725 31.55 23.1741 31.7516 23.1741 32C23.1741 32.2484 22.9725 32.45 22.7241 32.45ZM24.5241 32.45C24.2757 32.45 24.0741 32.2484 24.0741 32C24.0741 31.7516 24.2757 31.55 24.5241 31.55C24.7725 31.55 24.9741 31.7516 24.9741 32C24.9741 32.2484 24.7725 32.45 24.5241 32.45ZM26.3241 32.45C26.0757 32.45 25.8741 32.2484 25.8741 32C25.8741 31.7516 26.0757 31.55 26.3241 31.55C26.5725 31.55 26.7741 31.7516 26.7741 32C26.7741 32.2484 26.5725 32.45 26.3241 32.45ZM29.7 28.85H13.5V27.95H29.7V28.85Z" fill="#231F20"/>
</g>
</g>
<defs>
<clipPath id="clip0_303_105">
<rect width="45" height="45" fill="white" transform="translate(0 0.5)"/>
</clipPath>
</defs>
</svg>
