<svg xmlns="http://www.w3.org/2000/svg" width="33" height="34" viewBox="0 0 33 34" fill="none">
  <g clip-path="url(#clip0_303_95)">
    <path d="M24.2729 9.0154L24.2336 8.87193C23.6535 6.76178 22.2428 4.96325 20.3112 3.87085C18.3795 2.77845 16.0845 2.48138 13.9296 3.04479L8.12545 4.56965C5.97194 5.13813 4.13645 6.52035 3.0216 8.41312C1.90676 10.3059 1.60358 12.5547 2.17857 14.6662L4.31604 22.4778C4.82444 24.3487 5.91173 26.0193 7.42843 27.2601L8.31102 27.9848L8.54657 28.8456C8.8774 30.0516 9.68344 31.0796 10.7875 31.7035C11.8916 32.3274 13.2033 32.4962 14.4343 32.1728L24.8791 29.4288C26.1106 29.1053 27.1605 28.3156 27.7979 27.2335C28.4352 26.1514 28.6078 24.8656 28.2776 23.6588L28.0782 22.93L28.5221 22.2198C29.1995 21.1292 29.6446 19.9156 29.8306 18.652C30.0165 17.3884 29.9396 16.101 29.6042 14.8674L28.9586 12.5077C28.6814 11.4996 28.0709 10.61 27.2227 9.97818C26.3745 9.34634 25.3364 9.00793 24.2709 9.01592L24.2729 9.0154ZM24.2584 27.1528L13.8117 29.8973C13.5068 29.9774 13.1889 29.9979 12.876 29.9576C12.5631 29.9173 12.2613 29.8169 11.988 29.6624C11.436 29.3502 11.0331 28.8359 10.868 28.2326L25.9583 24.2682C26.04 24.5669 26.0609 24.8786 26.0197 25.1853C25.9785 25.492 25.8761 25.7877 25.7182 26.0556C25.5604 26.3234 25.3502 26.5582 25.0997 26.7465C24.8492 26.9348 24.5633 27.0728 24.2584 27.1528ZM27.2849 15.4767C27.536 16.402 27.5934 17.3676 27.4537 18.3152C27.314 19.2628 26.98 20.173 26.4719 20.9908L25.9467 21.8321L9.74464 26.0887L8.97148 25.4542C7.83341 24.5225 7.01765 23.2684 6.63627 21.8642L5.57761 17.9952C6.39247 18.2107 7.25103 18.2112 8.06613 17.9965L16.1916 15.8618C16.4994 15.781 16.7618 15.5836 16.9211 15.3131C17.0804 15.0427 17.1236 14.7213 17.041 14.4196C16.9585 14.118 16.7571 13.8609 16.481 13.7048C16.205 13.5487 15.877 13.5064 15.5692 13.5873L7.44473 15.7217C7.13977 15.802 6.82165 15.8226 6.50857 15.7823C6.19548 15.742 5.89357 15.6417 5.62008 15.487C5.34659 15.3324 5.10689 15.1264 4.91467 14.8809C4.72245 14.6354 4.5815 14.3552 4.49985 14.0563C4.08908 12.548 4.30563 10.9417 5.10199 9.58962C5.89835 8.23757 7.2095 7.25023 8.74782 6.84418L14.552 5.31933C16.0913 4.91683 17.7306 5.12902 19.1105 5.90935C20.4903 6.68967 21.498 7.97443 21.9123 9.48177L21.9516 9.62524C21.025 10.1406 20.2989 10.9425 19.887 11.9054C19.4751 12.8683 19.4007 13.9378 19.6754 14.9466L20.609 18.3584C20.6915 18.66 20.893 18.9171 21.169 19.0732C21.445 19.2293 21.773 19.2716 22.0808 19.1907C22.3886 19.1098 22.6511 18.9125 22.8104 18.642C22.9697 18.3715 23.0128 18.0501 22.9303 17.7485L21.9967 14.3367C21.8316 13.7333 21.9179 13.0904 22.2366 12.5494C22.5552 12.0083 23.0802 11.6135 23.696 11.4517C24.3117 11.29 24.9679 11.3745 25.52 11.6868C26.0722 11.999 26.4751 12.5134 26.6402 13.1168L27.2849 15.4767Z" fill="#E73539"/>
  </g>
  <defs>
    <clipPath id="clip0_303_95">
      <rect width="33" height="34" fill="white"/>
    </clipPath>
  </defs>
</svg>