<svg width="45" height="45" viewBox="0 0 45 45" fill="none" xmlns="http://www.w3.org/2000/svg">
<g id="Layer_1">
<g id="Group">
<path id="Vector" d="M30.5078 15.9286C30.5753 15.2091 30.6 14.2299 30.6 13.95C30.6 9.71055 27.2691 6.75 22.5 6.75C17.7309 6.75 14.4 9.71055 14.4 13.95C14.4 14.2299 14.4248 15.2091 14.4923 15.9286C11.6897 18.2416 9.90002 21.7404 9.90002 25.65C9.90002 32.5975 15.5525 38.25 22.5 38.25C29.4476 38.25 35.1 32.5975 35.1 25.65C35.1 21.7404 33.3104 18.2416 30.5078 15.9286ZM16.2 13.95C16.2 10.22 19.364 8.55 22.5 8.55C25.6361 8.55 28.8 10.22 28.8 13.95C28.8 14.1556 28.7924 14.4387 28.7802 14.7339C26.9303 13.6652 24.786 13.05 22.5 13.05C20.214 13.05 18.0698 13.6652 16.2198 14.7339C16.2077 14.4387 16.2 14.1556 16.2 13.95ZM22.5 36.45C16.5452 36.45 11.7 31.6048 11.7 25.65C11.7 19.6951 16.5452 14.85 22.5 14.85C28.4549 14.85 33.3 19.6951 33.3 25.65C33.3 31.6048 28.4549 36.45 22.5 36.45Z" fill="#231F20"/>
<path id="Vector_2" d="M20.4723 25.3651C20.704 25.2702 20.8921 25.1374 21.0366 24.9691C21.2706 24.6973 21.3889 24.345 21.3889 23.9098C21.3889 23.3001 21.1914 22.8321 20.7949 22.5117C20.3989 22.189 19.8387 22.0288 19.116 22.0288C18.2011 22.0288 17.5635 22.3267 17.199 22.9864C16.9888 23.3563 16.8822 23.85 16.8822 24.3H17.7655C17.7813 23.85 17.8524 23.6196 17.9775 23.4018C18.2052 23.0058 18.6169 22.824 19.2109 22.824C19.5435 22.824 19.8351 22.927 20.0862 23.1196C20.3377 23.3113 20.4624 23.5867 20.4624 23.9391C20.4624 24.4147 20.2743 24.7473 19.8981 24.9313C19.6839 25.038 19.4089 25.0906 19.0764 25.0906C19.003 25.0906 18.841 25.0911 18.7794 25.087C18.7159 25.0834 18.9 25.078 18.45 25.0681V25.8565C18.9 25.8525 18.67 25.8502 18.7317 25.8484C18.7933 25.8462 18.9 25.8444 18.9589 25.8444C19.4899 25.8444 19.9296 25.9434 20.2288 26.1373C20.5276 26.3313 20.6883 26.6737 20.6883 27.1629C20.6883 27.5589 20.5519 27.882 20.2684 28.1331C19.9854 28.3828 19.6119 28.5093 19.1421 28.5093C18.5382 28.5093 18.1219 28.3468 17.8906 27.9742C17.7597 27.7672 17.6737 27.45 17.6346 27H16.704C16.704 27.45 16.8943 28.1943 17.2723 28.656C17.6508 29.1154 18.2587 29.335 19.0966 29.335C19.9143 29.335 20.5465 29.1145 20.9938 28.6884C21.4371 28.2627 21.6612 27.7092 21.6612 27.0315C21.6612 26.6098 21.5563 26.2503 21.3462 25.9587C21.136 25.6662 20.8444 25.4682 20.4723 25.3651Z" fill="#231F20"/>
<path id="Vector_3" d="M24.8513 27.3613C25.0353 27.2016 25.2891 27.0148 25.6113 26.8366L26.2908 26.4523C26.8889 26.1198 27.3029 25.8304 27.5328 25.5969C27.9329 25.1946 28.1327 24.7077 28.1327 24.1398C28.1327 23.6011 27.9446 23.1129 27.5702 22.6728C27.1958 22.2331 26.6022 22.0149 25.79 22.0149C24.8135 22.0149 24.1322 22.4559 23.7461 23.143C23.5278 23.5314 23.4131 23.85 23.4054 24.75H24.3104C24.3243 24.3 24.3941 23.8675 24.5187 23.6196C24.7523 23.1565 25.1762 22.8757 25.7859 22.8757C26.1977 22.8757 26.5284 22.972 26.7759 23.2155C27.0234 23.4571 27.1481 23.7735 27.1481 24.1875C27.1481 24.5416 27.0113 24.8485 26.7404 25.1239C26.5698 25.2981 26.271 25.5069 25.8453 25.7544L24.8949 26.3011C24.2573 26.6719 23.8293 27.144 23.6097 27.5958C23.3897 28.0471 23.2646 28.35 23.2308 29.25H27.9V28.35H24.2253C24.3122 27.9 24.5201 27.6502 24.8513 27.3613Z" fill="#231F20"/>
</g>
</g>
</svg>
