<svg xmlns="http://www.w3.org/2000/svg" width="80" height="80" viewBox="0 0 80 80" fill="none">
  <g clip-path="url(#clip0_303_231)">
    <path d="M40.25 22.25C30.5 22.25 22.75 30 22.75 39.75C22.75 43.25 23.75 46.75 25.75 49.5L26 50L25.75 50.5L24.25 55.5L29.25 54L29.75 53.75L30.25 54C33.25 56 36.5 57 40.25 57C50 57 57.75 49.25 57.75 39.5C57.75 30 50 22.25 40.25 22.25ZM47.75 51.5C37.25 51.5 28.5 43 28.5 32.25C28.5 30 30.5 28 32.75 28C33 28 33.25 28 33.25 28C33.75 28 34.25 28.25 34.5 28.5L35.75 35.25L33.25 36.5C34.75 41.25 38.5 45.25 43.25 46.5L44.5 44L51.25 45.25C51.5 45.75 51.5 46 51.75 46.5C51.75 46.75 51.75 47 51.75 47C52 49.5 50 51.5 47.75 51.5Z" fill="black"/>
    <path d="M40 5C20.75 5 5 20.75 5 40C5 59.25 20.75 75 40 75C59.25 75 75 59.25 75 40C75 20.75 59.25 5 40 5ZM40.25 62C36.25 62 32.5 61 29.25 59L19.75 62L17.5 62.5L18 60.5L20.75 50.75C15 40 18.5 26.5 29.25 20.5C40 14.5 53.5 18 59.5 28.75C65.5 39.5 62 53 51.25 59C48 61 44.25 62 40.25 62Z" fill="black"/>
  </g>
  <defs>
    <clipPath id="clip0_303_231">
      <rect width="80" height="80" fill="white"/>
    </clipPath>
  </defs>
</svg>